<?xml version="1.0" standalone="no"?>
<!DOCTYPE svg PUBLIC "-//W3C//DTD SVG 20010904//EN"
 "http://www.w3.org/TR/2001/REC-SVG-20010904/DTD/svg10.dtd">
<svg version="1.0" xmlns="http://www.w3.org/2000/svg"
 width="512.000000pt" height="512.000000pt" viewBox="0 0 512.000000 512.000000"
 preserveAspectRatio="xMidYMid meet">
<metadata>
Created by potrace 1.14, written by Peter Selinger 2001-2017
</metadata>
<g transform="translate(0.000000,512.000000) scale(0.100000,-0.100000)"
fill="#000000" stroke="none">
<path d="M2409 4556 c-2 -2 -33 -6 -69 -9 -420 -38 -876 -257 -1193 -573 -62
-61 -184 -206 -222 -264 -17 -25 -32 -47 -35 -50 -7 -6 -54 -87 -86 -145 -11
-23 -26 -50 -32 -60 -80 -139 -176 -458 -198 -655 -14 -124 -8 -444 9 -545 26
-144 25 -142 62 -275 10 -37 65 -181 84 -220 12 -24 21 -47 21 -51 0 -10 119
-222 128 -228 5 -4 11 -13 14 -21 9 -25 98 -140 172 -225 107 -120 222 -223
356 -317 258 -181 622 -318 921 -345 150 -14 510 -6 539 12 3 2 26 6 50 10 25
4 79 15 120 26 436 115 827 370 1085 709 28 36 53 67 58 68 4 2 7 7 7 12 0 4
21 38 46 76 101 150 209 403 257 604 43 177 52 259 52 475 0 207 -9 276 -60
505 -17 78 -130 366 -154 394 -9 10 -15 21 -14 25 4 8 -116 206 -139 231 -10
11 -18 22 -18 25 0 7 -70 92 -135 164 -102 114 -221 216 -357 309 -74 50 -322
183 -363 195 -11 3 -51 17 -90 32 -38 14 -77 28 -85 30 -65 19 -186 47 -240
55 -36 6 -76 13 -90 16 -28 6 -396 15 -401 10z"/>
</g>
</svg>
